<?xml version="1.0" encoding="iso-8859-1"?>
<!-- Generator: Adobe Illustrator 19.0.0, SVG Export Plug-In . SVG Version: 6.00 Build 0)  -->
<svg version="1.1" id="Layer_1" xmlns="http://www.w3.org/2000/svg" xmlns:xlink="http://www.w3.org/1999/xlink" x="0px" y="0px"
	 viewBox="0 0 512.002 512.002" style="enable-background:new 0 0 512.002 512.002;" xml:space="preserve">
<g>
	<g>
		<g>
			<path d="M66.66,216.334c-5.508-0.561-10.406,3.436-10.969,8.928c-0.021,0.205-0.039,0.465-0.051,0.717
				c-0.24,5.517,4.038,10.171,9.555,10.412c0.148,0.008,0.295,0.01,0.443,0.01c5.271,0,9.668-4.129,9.977-9.428
				C75.99,221.614,72.042,216.887,66.66,216.334z"/>
			<path d="M446.808,275.596c-5.478-0.264-10.129,3.984-10.42,9.455c-0.004,0.053-0.008,0.129-0.01,0.168
				c-0.275,5.516,3.971,10.258,9.486,10.533c0.172,0.008,0.342,0.012,0.512,0.012c5.291,0,9.705-4.111,9.973-9.455
				c0.005-0.071,0.012-0.219,0.016-0.289C456.605,280.502,452.326,275.834,446.808,275.596z"/>
			<path d="M481.658,129.005c-0.094-0.955-0.328-1.868-0.674-2.725c-6.926-27.197-16.033-53.808-27.217-79.53
				c-0.188-0.542-0.412-1.066-0.686-1.562c-5.963-13.593-12.496-26.939-19.615-39.98C431.713,1.996,428.348,0,424.69,0H87.313
				c-3.658,0-7.023,1.996-8.777,5.207c-7.119,13.041-13.652,26.388-19.615,39.98c-0.273,0.495-0.498,1.02-0.685,1.562
				c-11.184,25.722-20.291,52.333-27.217,79.53c-0.346,0.857-0.58,1.77-0.674,2.725C20.04,170.387,14.733,213.084,14.733,256
				c0,42.92,5.307,85.619,15.613,127.006c0.096,0.943,0.326,1.846,0.666,2.693c6.928,27.205,16.037,53.824,27.225,79.553
				c0.186,0.541,0.41,1.064,0.682,1.56c5.965,13.592,12.498,26.938,19.617,39.979c1.754,3.211,5.119,5.209,8.777,5.209h74.522
				c0.023,0,0.047,0.002,0.07,0.002c0.016,0,0.031-0.002,0.045-0.002h188.1c0.016,0,0.031,0.002,0.045,0.002
				c0.023,0,0.047-0.002,0.07-0.002h74.523c3.658,0,7.023-1.998,8.777-5.209c7.117-13.037,13.648-26.379,19.611-39.969
				c0.281-0.506,0.513-1.043,0.702-1.597c11.176-25.709,20.277-52.305,27.201-79.488c0.35-0.863,0.586-1.785,0.68-2.75
				c10.305-41.381,15.609-84.074,15.609-126.986C497.269,213.085,491.962,170.388,481.658,129.005z M418.715,20
				c3.498,6.591,6.84,13.262,10.033,20h-60.951c-1.533-6.691-3.137-13.369-4.805-20H418.715z M266.002,20h76.356
				c1.701,6.619,3.342,13.297,4.91,20h-81.266V20z M169.646,20h76.356v20h-81.268C166.304,33.297,167.945,26.619,169.646,20z
				 M93.289,20h55.723c-1.668,6.631-3.273,13.309-4.807,20H83.256C86.449,33.262,89.79,26.591,93.289,20z M74.313,60h77.856
				c0.012,0,0.025,0.002,0.037,0.002c0.016,0,0.029-0.002,0.045-0.002H359.75c0.014,0,0.029,0.002,0.045,0.002
				c0.012,0,0.023-0.002,0.035-0.002h77.859c8.227,19.531,15.215,39.578,20.92,60H53.394C59.1,99.578,66.087,79.531,74.313,60z
				 M372.229,256c0,38.629-2.4,77.608-7.131,115.998h-99.096V140h99.096C369.828,178.393,372.229,217.371,372.229,256z M246.002,140
				v231.998h-99.096c-4.732-38.381-7.133-77.359-7.133-115.998c0-38.629,2.4-77.605,7.133-116H246.002z M34.733,256
				c0-39.156,4.59-78.123,13.52-116h20.482c-4.643,18.836-8.178,38.027-10.496,57.229c-0.662,5.482,3.246,10.465,8.731,11.127
				c0.406,0.049,0.81,0.072,1.211,0.072c4.986,0,9.303-3.727,9.914-8.803c2.42-20.027,6.203-40.048,11.254-59.625h37.414
				c-4.635,38.412-6.99,77.377-6.99,116c0,38.635,2.355,77.598,6.99,115.998h-78.51C39.324,334.123,34.733,295.156,34.733,256z
				 M93.289,492c-3.498-6.592-6.84-13.262-10.033-20h60.949c1.529,6.676,3.135,13.354,4.805,20H93.289z M246.005,492h-76.36
				c-1.705-6.635-3.346-13.313-4.91-20h81.27V492z M342.358,492h-76.354v-20h81.264C345.7,478.699,344.061,485.379,342.358,492z
				 M418.715,492h-55.723c1.668-6.635,3.273-13.313,4.805-20h60.951C425.555,478.738,422.213,485.408,418.715,492z M437.69,452
				h-77.723c-0.022,0-0.043,0-0.065,0H152.123c-0.033,0-0.066-0.002-0.102,0H74.313c-8.227-19.531-15.217-39.578-20.92-60.002
				h84.674c0.008,0,0.014,0.002,0.021,0.002c0.004,0,0.01-0.002,0.014-0.002H373.9c0.004,0,0.01,0.002,0.014,0.002
				c0.008,0,0.014-0.002,0.022-0.002h56.371c0.014,0,0.029,0.004,0.043,0.004c0.023,0,0.047-0.004,0.072-0.004h28.188
				C452.907,412.422,445.917,432.469,437.69,452z M463.75,371.999h-20.483c4.645-18.836,8.18-38.025,10.498-57.229
				c0.663-5.483-3.245-10.463-8.73-11.125c-5.484-0.672-10.465,3.244-11.125,8.729c-2.42,20.029-6.203,40.049-11.254,59.625H385.24
				c4.635-38.41,6.988-77.375,6.988-115.998c0-38.625-2.353-77.588-6.988-116h78.51c8.93,37.877,13.519,76.844,13.519,116
				S472.679,334.124,463.75,371.999z"/>
			<path d="M168.502,406.998c-8.26,0-14.998,6.738-14.998,15.002c0,8.262,6.738,15,14.998,15c8.262,0,15-6.738,15-15
				C183.502,413.736,176.764,406.998,168.502,406.998z"/>
			<path d="M343.504,406.998c-8.262,0-15,6.738-15,15.002c0,8.262,6.738,15,15,15c8.262,0,14.998-6.738,14.998-15
				C358.502,413.736,351.766,406.998,343.504,406.998z"/>
			<path d="M168.502,75c-8.26,0-14.998,6.738-14.998,15s6.738,15,14.998,15c8.262,0,15-6.738,15-15S176.764,75,168.502,75z"/>
			<path d="M343.504,75c-8.262,0-15,6.738-15,15s6.738,15,15,15c8.262,0,14.998-6.738,14.998-15S351.766,75,343.504,75z"/>
		</g>
	</g>
</g>
<g>
</g>
<g>
</g>
<g>
</g>
<g>
</g>
<g>
</g>
<g>
</g>
<g>
</g>
<g>
</g>
<g>
</g>
<g>
</g>
<g>
</g>
<g>
</g>
<g>
</g>
<g>
</g>
<g>
</g>
</svg>
